<svg xmlns="http://www.w3.org/2000/svg" viewBox="0 0 24 24" fill="none">
  <defs>
    <linearGradient id="compete-grad" x1="0%" y1="0%" x2="100%" y2="100%">
      <stop offset="0%" stop-color="#FFD23F" />
      <stop offset="100%" stop-color="#F42F76" />
    </linearGradient>
  </defs>
  <!-- Trophy Cup -->
  <path d="M6 9H4.5A2.5 2.5 0 0 1 2 6.5v0A2.5 2.5 0 0 1 4.5 4H6" stroke="url(#compete-grad)" stroke-width="2" stroke-linecap="round"/>
  <path d="M18 4h1.5A2.5 2.5 0 0 1 22 6.5v0a2.5 2.5 0 0 1-2.5 2.5H18" stroke="url(#compete-grad)" stroke-width="2" stroke-linecap="round"/>
  <path d="M6 4h12v8c0 3.3-2.7 6-6 6s-6-2.7-6-6V4z" stroke="url(#compete-grad)" stroke-width="2" stroke-linejoin="round"/>
  <!-- Trophy Base -->
  <path d="M12 18v3" stroke="url(#compete-grad)" stroke-width="2" stroke-linecap="round"/>
  <path d="M8 21h8" stroke="url(#compete-grad)" stroke-width="2" stroke-linecap="round"/>
</svg>
